<svg xmlns="http://www.w3.org/2000/svg" width="56" height="56" viewBox="0 0 56 56" fill="none">
  <rect width="56" height="56" fill="white" />
  <path
    d="M38.1509 37.2082C37.8485 42.67 33.3237 47.0044 27.7909 47.0044C22.2581 47.0044 17.724 42.67 17.4253 37.2082H17.2573L9.12427 40.0996C10.6661 49.1268 18.536 55.998 28.0037 55.998C37.4715 55.998 45.1771 49.2612 46.8235 40.3666C44.3315 39.0282 41.4045 37.9492 38.1752 37.2063H38.1509V37.2082Z"
    fill="#202020" />
  <path
    d="M28 38.3096C38.5784 38.3096 47.1557 29.7341 47.1557 19.1539C47.1557 8.5736 38.5784 0 28 0C17.4216 0 8.84424 8.57733 8.84424 19.1557C8.84424 29.7341 17.4197 38.3115 28 38.3115V38.3096ZM27.7872 8.56613C33.5178 8.56613 38.1621 13.2104 38.1621 18.9411C38.1621 24.6717 33.5178 29.316 27.7872 29.316C22.0565 29.316 17.4122 24.6717 17.4122 18.9411C17.4122 13.2104 22.0584 8.56613 27.7872 8.56613Z"
    fill="#202020" />
</svg>
