<svg xmlns="http://www.w3.org/2000/svg" width="176" height="22" viewBox="0 0 176 22" fill="none">
  <g clip-path="url(#clip0_909_14455)">
    <path
      d="M10.5376 8.80869L7.58687 8.17605C6.44957 7.96598 5.68895 7.33333 5.68895 6.32159C5.68895 5.14082 6.86972 4.25464 8.34508 4.25464C10.7042 4.25464 11.5904 6.65723 11.7594 7.87905H16.4366C16.1831 5.6479 14.2031 0 8.30403 0C3.8369 0 0.548129 3.07628 0.548129 6.7852C0.548129 9.69246 2.35913 12.095 6.36505 12.9812L9.10328 13.6139C10.7042 13.9519 11.3368 14.7101 11.3368 15.6374C11.3368 16.7336 10.4507 17.7019 8.59862 17.7019C6.15498 17.7019 4.93074 16.1855 4.80518 14.5411H0C0.25354 16.9002 2.40259 22 8.63967 22C14.0775 22 16.6902 18.5446 16.6902 15.1737C16.6902 12.1385 14.6256 9.65141 10.5376 8.80869Z"
      fill="#202020" />
    <path
      d="M36.4131 7.88146C36.4131 3.70892 33.9695 0 27.3944 0C21.831 0 18.8392 4.63615 18.5011 7.88146H23.4754C23.6444 6.07046 24.9918 4.51059 27.4378 4.51059C29.8839 4.51059 30.9367 5.73241 30.9367 7.20777C30.9367 7.92493 30.5576 8.5141 29.3768 8.68313L24.277 9.44133C20.8216 9.946 18.081 12.0105 18.081 15.7195C18.081 18.9648 20.7782 21.9565 25.2043 21.9565C28.2805 21.9565 30.2606 20.5246 31.3158 18.8803C31.3158 19.6795 31.4003 20.8192 31.5258 21.3674H36.6667C36.5411 20.6502 36.4131 19.1773 36.4131 18.0786V7.87905V7.88146ZM30.9342 12.9812C30.9342 16.6491 28.7417 17.7864 26.3826 17.7864C24.5692 17.7864 23.6854 16.6056 23.6854 15.3838C23.6854 13.7829 24.8227 12.9812 26.257 12.7712L30.9342 12.054V12.9812Z"
      fill="#202020" />
    <path
      d="M56.4717 7.88146C56.4717 3.70892 54.0281 0 47.453 0C41.8896 0 38.8978 4.63615 38.5598 7.88146H43.5316C43.7006 6.07046 45.0504 4.51059 47.494 4.51059C49.9377 4.51059 50.9929 5.73241 50.9929 7.20777C50.9929 7.92493 50.6138 8.5141 49.433 8.68313L44.3332 9.44133C40.8779 9.946 38.1372 12.0105 38.1372 15.7195C38.1372 18.9648 40.8344 21.9565 45.2605 21.9565C48.3367 21.9565 50.3168 20.5246 51.372 18.8803C51.372 19.6795 51.4565 20.8192 51.5821 21.3674H56.7229C56.5973 20.6502 56.4693 19.1773 56.4693 18.0786V7.87905L56.4717 7.88146ZM50.9929 12.9812C50.9929 16.6491 48.8004 17.7864 46.4412 17.7864C44.6302 17.7864 43.7441 16.6056 43.7441 15.3838C43.7441 13.7829 44.8814 12.9812 46.3157 12.7712L50.9929 12.054V12.9812Z"
      fill="#202020" />
    <path
      d="M68.3567 8.80867L65.406 8.17602C64.2687 7.96595 63.5105 7.33331 63.5105 6.32156C63.5105 5.14079 64.6912 4.25461 66.1642 4.25461C68.5233 4.25461 69.4095 5.81448 69.5785 7.0363H74.2557C74.0046 4.80274 72.0221 -0.00244141 66.1207 -0.00244141C61.6536 -0.00244141 58.3648 3.07384 58.3648 6.78276C58.3648 9.69002 60.1782 12.0926 64.1817 12.9788L66.9224 13.6114C68.5233 13.9495 69.1559 14.7077 69.1559 15.6349C69.1559 16.7312 68.2722 17.6995 66.4177 17.6995C63.9741 17.6995 62.7498 16.183 62.6243 14.5387H57.8191C58.0702 16.8978 60.2217 21.9976 66.4588 21.9976C71.8966 21.9976 74.5092 18.5422 74.5092 15.1713C74.5092 12.1361 72.4447 9.64897 68.3567 8.80625V8.80867Z"
      fill="#202020" />
    <path
      d="M101.481 0.0409621C98.7428 0.0409621 96.5503 0.968193 94.906 3.49635C93.8532 1.26278 91.5761 0.0409621 88.7534 0.0409621C86.4788 0.0409621 83.8226 1.13722 82.6853 3.16071V0.0409621H77.332V21.3673H82.9389V9.22876C82.9389 6.95173 84.3708 5.14073 86.8168 5.14073C89.2629 5.14073 90.4823 6.82617 90.4823 9.05973V21.3649H96.0457V9.22634C96.0457 6.99278 97.4776 5.13832 99.8802 5.13832C102.452 5.13832 103.548 6.82375 103.548 9.05732V21.3624H108.986V7.91759C108.986 2.35421 105.318 0.0361328 101.483 0.0361328L101.481 0.0409621Z"
      fill="#202020" />
    <path
      d="M145.645 0.0844727C143.412 0.0844727 140.925 1.05275 139.662 3.20422V0.0844727H134.224V21.3673H139.828V9.44129C139.828 7.0387 141.263 5.14319 143.706 5.14319C146.403 5.14319 147.541 6.95419 147.541 9.27227V21.3673H153.148V8.30157C153.148 3.74993 150.788 0.0844727 145.645 0.0844727Z"
      fill="#202020" />
    <path
      d="M167.266 9.35678L175.568 0.0844727H168.234L161.07 8.34504V0.0844727H155.463V21.3673H161.07V15.8884L163.388 13.4448L168.867 21.3673H175.737L167.266 9.35678Z"
      fill="#202020" />
    <path
      d="M121.417 0.043457C115.353 0.043457 110.439 4.95971 110.439 11.0205C110.439 17.0813 115.356 21.9976 121.417 21.9976C127.477 21.9976 132.394 17.0813 132.394 11.0205C132.394 4.95971 127.48 0.043457 121.417 0.043457ZM121.293 16.8471C118.009 16.8471 115.346 14.1861 115.346 10.8998C115.346 7.61343 118.009 4.95247 121.293 4.95247C124.577 4.95247 127.241 7.61343 127.241 10.8998C127.241 14.1861 124.58 16.8471 121.293 16.8471Z"
      fill="#202020" />
  </g>
  <defs>
    <clipPath id="clip0_909_14455">
      <rect width="175.737" height="22" fill="white" />
    </clipPath>
  </defs>
</svg>
