<?xml version="1.0" standalone="no"?>
<!DOCTYPE svg PUBLIC "-//W3C//DTD SVG 20010904//EN"
 "http://www.w3.org/TR/2001/REC-SVG-20010904/DTD/svg10.dtd">
<svg version="1.0" xmlns="http://www.w3.org/2000/svg"
 width="700.000000pt" height="700.000000pt" viewBox="0 0 700.000000 700.000000"
 preserveAspectRatio="xMidYMid meet">
<metadata>
Created by potrace 1.14, written by Peter Selinger 2001-2017
</metadata>
<g transform="translate(0.000000,700.000000) scale(0.100000,-0.100000)"
fill="#000000" stroke="none">
<path d="M3265 6989 c-49 -5 -151 -20 -225 -35 -1014 -200 -1780 -1019 -1915
-2047 -20 -154 -20 -450 0 -604 49 -372 175 -710 380 -1018 99 -149 166 -230
293 -359 195 -198 377 -330 627 -457 235 -119 473 -194 745 -236 158 -24 499
-24 660 0 431 66 833 239 1160 499 362 290 634 679 781 1119 83 248 119 475
119 754 0 287 -33 493 -121 757 -352 1060 -1385 1731 -2504 1627z m475 -1088
c266 -60 475 -176 662 -369 181 -187 289 -392 345 -652 25 -117 25 -381 -1
-498 -110 -513 -471 -884 -986 -1015 -73 -19 -113 -22 -285 -22 -175 0 -211 3
-290 23 -248 63 -437 166 -611 334 -183 177 -301 384 -365 643 -30 120 -37
360 -14 495 84 508 453 914 947 1045 51 14 125 29 163 34 102 14 334 5 435
-18z"/>
<path d="M1651 2169 c-278 -98 -506 -181 -508 -183 -2 -2 8 -55 22 -117 120
-532 430 -1022 861 -1359 264 -207 580 -360 908 -441 204 -49 327 -63 571 -63
250 0 378 15 591 69 174 45 298 91 471 176 620 305 1079 873 1249 1547 19 74
34 139 34 146 0 15 -249 137 -399 196 -157 62 -352 125 -522 170 -84 22 -154
38 -155 37 -1 -1 -8 -40 -14 -87 -41 -305 -179 -575 -400 -784 -268 -251 -622
-374 -994 -345 -225 18 -430 91 -626 222 -96 64 -273 241 -337 337 -122 182
-199 390 -219 593 -4 39 -11 67 -18 67 -6 -1 -238 -82 -515 -181z"/>
</g>
</svg>
