<?xml version="1.0" standalone="no"?>
<!DOCTYPE svg PUBLIC "-//W3C//DTD SVG 20010904//EN"
 "http://www.w3.org/TR/2001/REC-SVG-20010904/DTD/svg10.dtd">
<svg version="1.0" xmlns="http://www.w3.org/2000/svg"
 width="512.000000pt" height="512.000000pt" viewBox="0 0 512.000000 512.000000"
 preserveAspectRatio="xMidYMid meet">
<metadata>
Created by potrace 1.14, written by Peter Selinger 2001-2017
</metadata>
<g transform="translate(0.000000,512.000000) scale(0.100000,-0.100000)"
fill="#000000" stroke="none">
<path d="M302 5113 c-6 -2 -10 -9 -7 -13 3 -5 -4 -7 -15 -5 -11 2 -24 -3 -30
-13 -5 -9 -10 -14 -10 -9 0 11 -62 -23 -83 -46 -9 -11 -17 -17 -17 -13 0 10
-23 -14 -44 -46 -10 -16 -23 -25 -30 -21 -6 4 -4 -2 4 -12 8 -10 10 -16 3 -12
-7 4 -19 -9 -32 -33 -11 -22 -17 -40 -13 -40 4 0 0 -5 -8 -10 -13 -9 -13 -10
0 -10 12 -1 11 -3 -2 -11 -17 -9 -18 -133 -18 -2254 0 -1517 3 -2246 10 -2250
6 -4 10 -12 9 -18 -3 -20 13 -47 24 -40 6 3 7 1 3 -5 -4 -6 1 -26 11 -44 9
-18 16 -37 15 -41 -1 -5 1 -6 5 -4 5 3 14 -1 21 -9 7 -8 10 -14 7 -14 -4 0 0
-7 9 -15 8 -9 17 -14 19 -13 1 2 15 -9 31 -25 15 -15 31 -25 36 -22 5 3 12 0
16 -6 5 -8 3 -9 -6 -4 -8 5 -11 4 -7 -2 6 -10 63 -27 80 -24 4 0 7 -3 7 -8 0
-5 8 -7 19 -4 10 3 22 0 25 -6 11 -17 4450 -15 4440 1 -5 10 -4 10 6 1 11 -10
16 -9 27 5 8 9 12 11 8 5 -7 -15 11 -18 20 -3 3 5 12 7 21 3 9 -3 14 0 12 8
-2 8 6 13 19 14 12 0 36 12 53 27 17 15 34 27 38 27 3 0 9 8 13 18 4 10 8 14
8 8 1 -5 10 5 21 23 11 17 24 32 30 32 5 0 9 3 9 8 -4 21 2 32 13 26 8 -5 9
-2 5 10 -4 10 -1 19 8 22 8 4 15 10 15 16 0 5 -6 6 -13 2 -6 -4 -5 1 4 12 9
10 14 25 11 33 -3 10 0 11 9 5 11 -6 10 -3 -1 11 -9 11 -10 16 -2 11 18 -11
18 4434 0 4453 -10 11 -10 12 -1 7 12 -7 -34 113 -47 124 -4 3 -9 13 -13 23
-4 10 -11 15 -17 12 -6 -4 -7 1 -3 11 4 11 2 15 -4 11 -6 -4 -13 2 -16 13 -3
11 -13 20 -22 20 -9 0 -13 5 -10 10 3 6 -3 10 -14 10 -12 0 -20 6 -18 13 1 6
-5 12 -13 12 -8 0 -23 9 -33 20 -10 11 -16 13 -12 5 5 -12 4 -12 -7 1 -7 9
-25 15 -40 15 -14 -1 -25 1 -22 5 2 4 -3 10 -12 13 -28 11 -4474 7 -4474 -4 0
-5 -5 -10 -11 -10 -5 0 -7 5 -4 10 7 11 6 11 -13 3z"/>
</g>
</svg>
